<?xml version="1.0" encoding="UTF-8" standalone="no"?>
<!-- Generator: Adobe Illustrator 16.0.0, SVG Export Plug-In . SVG Version: 6.00 Build 0)  -->

<svg
   version="1.1"
   id="Layer_1"
   x="0px"
   y="0px"
   width="22.84281"
   height="22.843"
   viewBox="0 0 22.842809 22.843"
   enable-background="new 0 0 595.28 841.89"
   xml:space="preserve"
   sodipodi:docname="close_button.svg"
   inkscape:version="1.1.2 (0a00cf5339, 2022-02-04)"
   xmlns:inkscape="http://www.inkscape.org/namespaces/inkscape"
   xmlns:sodipodi="http://sodipodi.sourceforge.net/DTD/sodipodi-0.dtd"
   xmlns="http://www.w3.org/2000/svg"
   xmlns:svg="http://www.w3.org/2000/svg"
   xmlns:rdf="http://www.w3.org/1999/02/22-rdf-syntax-ns#"
   xmlns:cc="http://creativecommons.org/ns#"
   xmlns:dc="http://purl.org/dc/elements/1.1/"><metadata
   id="metadata971"><rdf:RDF><cc:Work
       rdf:about=""><dc:format>image/svg+xml</dc:format><dc:type
         rdf:resource="http://purl.org/dc/dcmitype/StillImage" /><dc:title /></cc:Work></rdf:RDF></metadata><defs
   id="defs969" /><sodipodi:namedview
   pagecolor="#ffffff"
   bordercolor="#666666"
   borderopacity="1"
   objecttolerance="10"
   gridtolerance="10"
   guidetolerance="10"
   inkscape:pageopacity="0"
   inkscape:pageshadow="2"
   inkscape:window-width="1920"
   inkscape:window-height="1012"
   id="namedview967"
   showgrid="false"
   inkscape:zoom="24.365563"
   inkscape:cx="1.3748913"
   inkscape:cy="17.237443"
   inkscape:window-x="1600"
   inkscape:window-y="28"
   inkscape:window-maximized="1"
   inkscape:current-layer="Layer_1"
   inkscape:pagecheckerboard="0" />






<g
   id="g50"
   transform="translate(-259.9131,-768.71)"
   style="fill:#1a1a1a">
	<path
   d="m 271.541,768.711 -0.211,-10e-4 c -6.182,0 -11.302,5.029 -11.415,11.213 -0.114,6.298 4.915,11.514 11.212,11.629 l 0.21,10e-4 c 6.182,0 11.304,-5.031 11.417,-11.213 0.055,-3.052 -1.08,-5.941 -3.198,-8.136 -2.118,-2.198 -4.964,-3.435 -8.015,-3.493 z m -0.204,22.022 -0.197,-0.003 c -5.844,-0.104 -10.513,-4.946 -10.406,-10.791 0.104,-5.74 4.856,-10.409 10.595,-10.409 l 0.197,0.002 c 2.833,0.049 5.474,1.201 7.439,3.241 1.967,2.038 3.021,4.72 2.97,7.549 -0.105,5.741 -4.86,10.411 -10.598,10.411 z"
   id="path46"
   inkscape:connector-curvature="0"
   style="fill:#1a1a1a" />
	<path
   d="m 275.013,776.017 -3.667,3.536 -3.539,-3.669 c -0.157,-0.163 -0.416,-0.167 -0.579,-0.011 -0.164,0.156 -0.168,0.417 -0.011,0.579 l 3.537,3.67 -3.667,3.535 c -0.163,0.158 -0.168,0.416 -0.011,0.58 0.081,0.083 0.188,0.124 0.295,0.124 0.102,0 0.206,-0.037 0.285,-0.114 l 3.667,-3.536 3.536,3.666 c 0.082,0.085 0.189,0.127 0.296,0.127 0.103,0 0.206,-0.038 0.284,-0.116 0.164,-0.156 0.169,-0.416 0.011,-0.58 l -3.536,-3.667 3.667,-3.536 c 0.163,-0.156 0.168,-0.415 0.012,-0.579 -0.158,-0.163 -0.418,-0.165 -0.58,-0.009 z"
   id="path48"
   inkscape:connector-curvature="0"
   style="fill:#1a1a1a" />
</g>











































































































</svg>
